:SAMPLES-PER-SECOND 30
:FULLY-SPECIFIED
:DEGREES
856
root  5.41742 38.794 31.2486 -0.346436 -66.7909 -6.35956
RightUpLeg  -8.77666 -6.54157 6.00846
RightLeg  18.8421 -6.70586 0.25258
RightFoot  -5.86516 0.330136 -7.71153
RightToes  -1.33073e-015 0 -3.6325e-017
Spine  8.89976 -3.12885 11.5768
Spine1  7.63348 -1.46441 0.595493
HEad  -23.0128 -51.3271 17.226
LeftShoulder1  0.28041 2.72196 -29.7634
LeftArm  -2.43565 1.86024 -43.6989
LeftForeArm  32.2095 -6.64272 -9.45211
LeftHand  -0.00229171 3.90606 -1.66771
RightShoulder  -0.375442 -4.6211 26.5832
RightArm  11.5588 -3.13838 42.7914
RightForeArm  8.37045 6.07783 6.45672
RightHand  -0.207119 1.04918 -3.84989
LeftUpLeg  -4.77663 5.64472 6.76432
LeftLeg  59.1185 -0.868808 -1.01673
LeftFoot  5.97287 1.15838 -7.83555
LeftToes  -1.03319e-009 7.52634e-011 -3.26162e-012
857
root  4.5825 38.8953 31.5642 -1.51123 -69.1495 -5.4361
RightUpLeg  -6.87194 -6.57449 5.72809
RightLeg  18.8172 -4.48655 0.509132
RightFoot  -7.03242 0.244693 -7.74879
RightToes  -1.33073e-015 0 -3.6325e-017
Spine  8.98329 -2.61854 11.4903
Spine1  7.63495 -0.806555 0.2357
HEad  -21.4371 -50.4643 17.0554
LeftShoulder1  0.228569 2.87455 -30.1879
LeftArm  -2.96098 2.83982 -42.7122
LeftForeArm  29.6866 -7.76985 -8.95878
LeftHand  -0.014105 3.65644 -0.361501
RightShoulder  -0.388199 -4.66972 26.295
RightArm  12.6822 -0.80415 43.5033
RightForeArm  11.036 5.20979 6.94425
RightHand  -0.234579 0.998576 -4.36865
LeftUpLeg  -8.00993 5.36736 6.14524
LeftLeg  60.7808 -1.00802 -1.3837
LeftFoot  4.88064 0.921081 -6.68232
LeftToes  -1.03319e-009 7.52634e-011 -3.26162e-012
858
root  3.7326 38.9983 31.8548 -3.16492 -71.5161 -4.00305
RightUpLeg  -4.95482 -6.7026 5.25188
RightLeg  18.7649 -2.18401 0.779959
RightFoot  -8.10443 0.16656 -7.80803
RightToes  -1.33073e-015 0 -3.6325e-017
Spine  9.01446 -2.31201 11.4725
Spine1  7.48117 -0.261996 -0.785963
HEad  -18.6142 -49.5273 13.23
LeftShoulder1  0.286716 2.70604 -29.874
LeftArm  -2.51568 4.50038 -42.0572
LeftForeArm  25.5017 -9.4111 -8.586
LeftHand  -0.0343 3.61164 0.901667
RightShoulder  -0.357878 -4.59016 25.8993
RightArm  12.1423 1.44813 45.2006
RightForeArm  12.1482 4.11189 6.87374
RightHand  -0.264535 1.16777 -4.79919
LeftUpLeg  -10.7655 4.71526 5.51386
LeftLeg  60.1081 -1.02008 -1.37399
LeftFoot  2.71325 0.818615 -6.75728
LeftToes  -1.03319e-009 7.52634e-011 -3.26162e-012
859
root  2.93285 39.0509 32.1365 -4.74609 -73.5467 -2.57996
RightUpLeg  -3.26829 -7.01088 4.71227
RightLeg  18.844 0.0358595 1.11151
RightFoot  -9.4303 0.0672384 -7.83394
RightToes  -1.33073e-015 0 -3.6325e-017
Spine  8.844 -2.13231 11.2704
Spine1  7.6393 -0.00826694 -1.35573
HEad  -16.5885 -49.0933 10.0994
LeftShoulder1  0.389129 2.40923 -29.4275
LeftArm  -1.91937 6.05035 -41.9191
LeftForeArm  22.3192 -11.2114 -8.06165
LeftHand  -0.0549508 3.43855 2.31327
RightShoulder  -0.365092 -4.61298 25.8755
RightArm  11.056 3.83559 46.7108
RightForeArm  12.5133 3.75913 6.50437
RightHand  -0.1668 0.402731 -3.40865
LeftUpLeg  -13.3832 3.32991 4.83784
LeftLeg  57.501 -0.729706 -0.724625
LeftFoot  0.886276 0.643869 -6.06518
LeftToes  -1.03319e-009 7.52634e-011 -3.26162e-012
860
root  2.08273 39.142 32.4169 -6.70178 -75.8248 -0.809875
RightUpLeg  -1.09762 -7.15561 4.11697
RightLeg  18.1245 2.42892 1.43482
RightFoot  -10.3935 -0.00434935 -7.90119
RightToes  -1.33073e-015 0 -3.6325e-017
Spine  8.63306 -1.83604 10.8822
Spine1  7.773 0.246333 -1.73612
HEad  -15.7076 -48.9151 9.0891
LeftShoulder1  0.345606 2.54165 -29.802
LeftArm  -1.02052 6.65399 -41.229
LeftForeArm  20.3278 -12.3656 -7.74694
LeftHand  -0.0453823 4.07997 2.22453
RightShoulder  -0.341372 -4.54875 25.5783
RightArm  10.2018 5.68656 48.2235
RightForeArm  10.8566 4.34069 6.25138
RightHand  -0.152053 0.792189 -2.78663
LeftUpLeg  -14.8685 2.28239 4.48503
LeftLeg  52.3953 -0.691189 -0.513792
LeftFoot  -0.327465 0.539602 -5.57483
LeftToes  -1.03319e-009 7.52634e-011 -3.26162e-012
861
root  1.24433 39.2121 32.67 -8.1803 -78.0345 0.713318
RightUpLeg  0.777932 -7.04496 3.77048
RightLeg  17.3432 4.58416 1.53272
RightFoot  -11.2021 -0.0660773 -7.86789
RightToes  -1.33073e-015 0 -3.6325e-017
Spine  8.10345 -1.48402 10.2806
Spine1  8.04036 0.40418 -1.86076
HEad  -15.3577 -47.7297 8.50505
LeftShoulder1  0.32133 2.60615 -29.6801
LeftArm  0.00905532 7.34491 -41.356
LeftForeArm  19.4911 -13.6717 -7.34968
LeftHand  -0.0482294 3.79181 2.12446
RightShoulder  -0.368953 -4.62013 25.9985
RightArm  10.8589 7.84671 49.068
RightForeArm  7.21175 5.47997 6.66144
RightHand  -0.347978 3.3195 -4.93847
LeftUpLeg  -15.9019 1.37634 4.53307
LeftLeg  45.3579 -0.881133 -0.55949
LeftFoot  -0.705227 0.443582 -4.72478
LeftToes  -1.03319e-009 7.52634e-011 -3.26162e-012
862
root  0.419417 39.2749 32.9173 -9.09363 -80.0432 1.8725
RightUpLeg  2.4746 -6.96451 3.44263
RightLeg  16.3554 6.53574 1.68563
RightFoot  -11.7766 -0.110106 -8.07012
RightToes  -1.33073e-015 0 -3.6325e-017
Spine  7.44105 -1.17788 10.0179
Spine1  8.27683 0.546013 -2.20305
HEad  -15.7468 -52.1084 10.7564
LeftShoulder1  0.332559 2.5728 -29.6203
LeftArm  0.122586 7.38286 -41.4989
LeftForeArm  19.3957 -13.6379 -7.38297
LeftHand  -0.0406907 4.06382 1.76243
RightShoulder  -0.288635 -4.39535 25.1805
RightArm  11.5249 8.81077 50.9672
RightForeArm  6.79326 7.77734 6.84086
RightHand  -0.331544 3.95716 -4.37865
LeftUpLeg  -16.3392 -0.211777 4.71954
LeftLeg  36.4598 -1.65679 -0.94987
LeftFoot  -0.551154 0.458533 -4.80721
LeftToes  -1.03319e-009 7.52634e-011 -3.26162e-012
863
root  -0.420317 39.3232 33.1509 -9.42041 -81.9676 2.62744
RightUpLeg  3.87749 -6.88982 3.14001
RightLeg  15.5272 8.40009 1.88828
RightFoot  -12.3162 -0.152229 -8.12915
RightToes  -1.33073e-015 0 -3.6325e-017
Spine  6.69937 -0.931327 9.68367
Spine1  8.30046 0.639964 -2.64579
HEad  -15.4612 -50.1046 9.3738
LeftShoulder1  0.381564 2.42461 -29.2321
LeftArm  0.456303 7.96708 -41.771
LeftForeArm  20.1095 -14.0617 -7.22027
LeftHand  -0.033786 4.06928 1.13153
RightShoulder  -0.300511 -4.4233 25.4681
RightArm  14.5645 10.069 52.0061
RightForeArm  6.61756 10.4162 7.28262
RightHand  -0.313985 3.88942 -4.19159
LeftUpLeg  -16.0243 -1.6243 5.24688
LeftLeg  25.7666 -3.35589 -1.47519
LeftFoot  0.790913 0.609189 -5.7824
LeftToes  -1.03319e-009 7.52634e-011 -3.26162e-012
864
root  -1.27134 39.3754 33.3359 -10.0441 -84.2066 3.5119
RightUpLeg  5.64346 -6.61096 2.94998
RightLeg  14.2687 10.421 1.89179
RightFoot  -12.6852 -0.180778 -8.08874
RightToes  -1.33073e-015 0 -3.6325e-017
Spine  6.2124 -0.567818 8.78004
Spine1  8.46621 0.75554 -2.56227
HEad  -16.1886 -49.6156 9.18351
LeftShoulder1  0.354976 2.50159 -29.2994
LeftArm  0.277307 8.44694 -41.7685
LeftForeArm  20.5698 -14.3863 -6.98474
LeftHand  -0.0210055 3.5573 0.0159308
RightShoulder  -0.354128 -4.57688 25.9451
RightArm  19.1884 11.5095 53.0293
RightForeArm  5.49017 12.8961 7.4143
RightHand  -0.334758 3.47555 -4.63313
LeftUpLeg  -14.7924 -1.7688 5.63322
LeftLeg  14.3663 -6.34377 -1.18893
LeftFoot  2.02064 0.788207 -6.81077
LeftToes  -1.03319e-009 7.52634e-011 -3.26162e-012
865
root  -2.12417 39.3876 33.5372 -12.9978 -85.9557 6.69855
RightUpLeg  7.30918 -6.72105 2.2834
RightLeg  13.3357 12.4109 2.11087
RightFoot  -13.3411 -0.232928 -8.18612
RightToes  -1.33073e-015 0 -3.6325e-017
Spine  5.70794 -0.492331 7.59027
Spine1  8.69049 0.621518 -2.5298
HEad  -16.2649 -49.3155 9.23567
LeftShoulder1  0.365195 2.47264 -29.2957
LeftArm  0.301731 8.92326 -41.9251
LeftForeArm  20.7172 -14.515 -6.92665
LeftHand  -0.032405 3.13944 0.804809
RightShoulder  -0.309447 -4.45188 25.4832
RightArm  23.9223 12.1868 54.8942
RightForeArm  4.16201 15.0907 7.17692
RightHand  -0.350402 3.16392 -4.9837
LeftUpLeg  -13.6893 1.31164 4.62714
LeftLeg  4.41578 -10.9206 0.433716
LeftFoot  3.11157 1.07983 -8.6537
LeftToes  -1.03319e-009 7.52634e-011 -3.26162e-012
866
root  -3.03028 39.353 33.7459 -19.5994 -87.4995 13.0214
RightUpLeg  9.42131 -6.62966 1.77935
RightLeg  12.7328 13.9086 1.88408
RightFoot  -14.2358 -0.298192 -7.9807
RightToes  -1.33073e-015 0 -3.6325e-017
Spine  5.39556 -0.512892 6.42653
Spine1  9.25162 0.502954 -2.51994
HEad  -15.9939 -49.0741 8.58864
LeftShoulder1  0.38349 2.42177 -29.3255
LeftArm  0.578839 9.28521 -41.7829
LeftForeArm  20.6059 -14.6585 -6.89465
LeftHand  -0.0207676 4.04712 -0.127109
RightShoulder  -0.297545 -4.41149 25.5788
RightArm  27.7954 12.4384 56.2309
RightForeArm  3.65191 16.92 6.67334
RightHand  -0.288882 3.35514 -4.07806
LeftUpLeg  -12.5108 4.75189 4.01023
LeftLeg  -1.7994 -12.1829 0.675246
LeftFoot  2.39645 1.23951 -10.4671
LeftToes  -1.03319e-009 7.52634e-011 -3.26162e-012
867
root  -3.99761 39.2339 34.0132 -34.3618 -88.5486 27.4186
RightUpLeg  11.3025 -6.74404 0.986515
RightLeg  13.1022 15.1059 1.84937
RightFoot  -15.7139 -0.407499 -7.88354
RightToes  -1.33073e-015 0 -3.6325e-017
Spine  4.84993 -0.73811 5.51648
Spine1  9.98122 0.284318 -2.67627
HEad  -16.2668 -50.8724 9.01035
LeftShoulder1  0.401415 2.36899 -29.2513
LeftArm  0.630318 9.1917 -41.4761
LeftForeArm  21.27 -14.1523 -7.1726
LeftHand  -0.0195072 4.45284 -0.484689
RightShoulder  -0.319809 -4.47051 25.9383
RightArm  29.4568 12.426 57.4229
RightForeArm  3.31108 17.5096 6.5225
RightHand  -0.357115 4.04695 -4.65357
LeftUpLeg  -11.6957 4.76209 3.51602
LeftLeg  -3.09568 -9.56767 0.172987
LeftFoot  0.624446 1.21838 -11.6603
LeftToes  -1.03319e-009 7.52634e-011 -3.26162e-012
868
root  -4.96818 39.1329 34.2692 -65.7086 -89.0798 58.8416
RightUpLeg  12.9002 -6.04312 0.76131
RightLeg  12.8732 15.1269 1.26991
RightFoot  -16.8071 -0.471892 -7.49919
RightToes  -1.33073e-015 0 -3.6325e-017
Spine  4.09447 -0.817824 4.54206
Spine1  10.368 0.169726 -2.74035
HEad  -16.7222 -49.1347 8.01088
LeftShoulder1  0.363023 2.48917 -29.6864
LeftArm  0.218065 8.56662 -40.8366
LeftForeArm  22.6949 -12.9276 -7.67817
LeftHand  -0.00688483 3.13264 -0.365509
RightShoulder  -0.349317 -4.56204 25.9422
RightArm  29.4305 11.1456 58.1903
RightForeArm  2.9376 17.7543 6.41289
RightHand  -0.434918 4.36893 -5.4544
LeftUpLeg  -12.486 3.9472 2.4027
LeftLeg  0.276571 -9.13011 0.0663329
LeftFoot  4.00853 0.837201 -6.5146
LeftToes  -1.03319e-009 7.52634e-011 -3.26162e-012
869
root  -6.01696 39.0428 34.5353 -135.932 -88.743 128.815
RightUpLeg  14.851 -5.18954 0.214044
RightLeg  12.8501 15.6651 0.919302
RightFoot  -17.6563 -0.492466 -6.75981
RightToes  -1.33073e-015 0 -3.6325e-017
Spine  3.85289 -0.599847 3.39608
Spine1  10.1361 0.30284 -2.49368
HEad  -16.2356 -48.9952 6.83499
LeftShoulder1  0.276891 2.74397 -30.3087
LeftArm  -2.13792 8.43531 -40.5507
LeftForeArm  25.4992 -11.6037 -7.73624
LeftHand  -0.00813126 3.11093 -0.448343
RightShoulder  -0.344281 -4.5505 25.822
RightArm  28.9128 9.61633 58.5334
RightForeArm  3.47959 16.8772 6.83517
RightHand  -0.411274 4.16654 -5.26677
LeftUpLeg  -12.5967 3.42044 1.64385
LeftLeg  3.54553 -9.8571 -0.129775
LeftFoot  9.12982 0.540979 -3.22519
LeftToes  -1.03319e-009 7.52634e-011 -3.26162e-012
870
root  -7.10603 38.9625 34.7641 -165.709 -86.721 158.145
RightUpLeg  16.4871 -3.27141 -0.355133
RightLeg  13.7233 15.5794 0.787343
RightFoot  -18.3598 -0.475801 -5.7352
RightToes  -1.33073e-015 0 -3.6325e-017
Spine  3.56506 -0.15387 2.77307
Spine1  10.1202 1.0344 -3.46542
HEad  -16.5428 -48.0611 6.62818
LeftShoulder1  0.182775 3.00389 -30.4926
LeftArm  -2.04541 8.12806 -39.6685
LeftForeArm  24.8195 -11.0004 -8.02462
LeftHand  -0.0209344 4.18464 -0.29846
RightShoulder  -0.369703 -4.60799 26.4133
RightArm  27.5834 8.38824 58.5718
RightForeArm  5.6285 15.1796 7.62897
RightHand  -0.358026 3.76513 -4.79402
LeftUpLeg  -12.1257 4.24236 1.73185
LeftLeg  7.01544 -9.42483 -1.09183
LeftFoot  10.4594 0.543793 -3.15386
LeftToes  -1.03319e-009 7.52634e-011 -3.26162e-012
